<svg width="720" height="720" viewBox="0 0 720 720" fill="none" xmlns="http://www.w3.org/2000/svg">
<g clip-path="url(#clip0_103_38)">
<rect width="720" height="720" fill="white"/>
<path d="M419.871 674.206L417.423 661.948L406.094 664.21L407.458 675.682L419.871 674.206ZM550.794 612.051L559.958 603.549L551.949 594.916L542.854 602.396L550.794 612.051ZM419.989 675.202L407.576 676.678L409.173 690.105L422.433 687.461L419.989 675.202ZM551.475 612.785L559.417 622.438L569.662 614.009L560.639 604.284L551.475 612.785ZM422.318 686.464C473.418 676.261 519.998 653.561 558.734 621.705L542.854 602.396C507.211 631.709 464.383 652.571 417.423 661.948L422.318 686.464ZM432.402 673.727L432.283 672.73L407.458 675.682L407.576 676.678L432.402 673.727ZM422.433 687.461C473.751 677.228 520.526 654.434 559.417 622.438L543.534 603.132C507.738 632.582 464.718 653.537 417.545 662.943L422.433 687.461ZM541.63 620.552L542.311 621.286L560.639 604.284L559.958 603.549L541.63 620.552Z" fill="black"/>
<path d="M118.039 422V417C116.69 417 115.399 417.545 114.458 418.51C113.517 419.476 113.006 420.781 113.04 422.129L118.039 422ZM345.961 422L350.96 422.129C350.994 420.781 350.483 419.476 349.542 418.51C348.601 417.545 347.31 417 345.961 417V422ZM335.958 422V417C333.251 417 331.036 419.153 330.96 421.858L335.958 422ZM128.042 422L133.04 421.858C132.964 419.153 130.749 417 128.042 417V422ZM232 528C172.761 528 124.558 480.742 123.037 421.871L113.04 422.129C114.701 486.406 167.324 538 232 538V528ZM340.963 421.871C339.442 480.742 291.239 528 232 528V538C296.676 538 349.299 486.406 350.96 422.129L340.963 421.871ZM345.961 417H335.958V427H345.961V417ZM232 528C291.148 528 339.291 480.889 340.956 422.142L330.96 421.858C329.448 475.211 285.72 518 232 518V528ZM123.044 422.142C124.709 480.889 172.852 528 232 528V518C178.28 518 134.552 475.211 133.04 421.858L123.044 422.142ZM128.042 417H118.039V427H128.042V417Z" fill="black"/>
<path d="M351.039 422V417C349.69 417 348.399 417.545 347.458 418.51C346.517 419.476 346.006 420.781 346.04 422.129L351.039 422ZM578.961 422L583.96 422.129C583.994 420.781 583.483 419.476 582.542 418.51C581.601 417.545 580.31 417 578.961 417V422ZM568.958 422V417C566.251 417 564.036 419.153 563.96 421.858L568.958 422ZM361.042 422L366.04 421.858C365.964 419.153 363.749 417 361.042 417V422ZM465 528C405.761 528 357.558 480.742 356.037 421.871L346.04 422.129C347.701 486.406 400.324 538 465 538V528ZM573.963 421.871C572.442 480.742 524.239 528 465 528V538C529.676 538 582.299 486.406 583.96 422.129L573.963 421.871ZM578.961 417H568.958V427H578.961V417ZM465 528C524.148 528 572.291 480.889 573.956 422.142L563.96 421.858C562.448 475.211 518.72 518 465 518V528ZM356.044 422.142C357.709 480.889 405.852 528 465 528V518C411.28 518 367.552 475.211 366.04 421.858L356.044 422.142ZM361.042 417H351.039V427H361.042V417Z" fill="black"/>
<line x1="128" y1="427" x2="564" y2="427" stroke="black" stroke-width="20" stroke-linecap="round"/>
<path d="M429 50.9172L509.527 268.079" stroke="black" stroke-width="12" stroke-linecap="round"/>
<path fill-rule="evenodd" clip-rule="evenodd" d="M651.804 307H512L455 151L370 364L61.3457 366.469C68.9255 207.532 200.186 81 361 81C501.148 81 618.85 177.101 651.804 307Z" fill="black"/>
<line x1="479.074" y1="48.2008" x2="368.201" y2="330.926" stroke="black" stroke-width="25" stroke-linecap="round"/>
</g>
<defs>
<clipPath id="clip0_103_38">
<rect width="720" height="720" fill="white"/>
</clipPath>
</defs>
</svg>
