<svg width="32" height="32" viewBox="0 0 32 32" fill="none" xmlns="http://www.w3.org/2000/svg">
<g clip-path="url(#clip0_609_28)">
<path d="M32 0H0V32H32V0Z" fill="white"/>
<path d="M6.86319 17.3082V16.4082C6.62029 16.4082 6.3877 16.5064 6.21828 16.6804C6.04885 16.8545 5.95697 17.0896 5.96352 17.3325L6.86319 17.3082ZM15.4766 17.3082L16.3763 17.3325C16.3829 17.0896 16.291 16.8545 16.1216 16.6804C15.9521 16.5064 15.7195 16.4082 15.4766 16.4082V17.3082ZM11.1699 20.5982C9.31898 20.5982 7.81243 19.1226 7.76286 17.284L5.96352 17.3325C6.03929 20.1433 8.34111 22.3982 11.1699 22.3982V20.5982ZM14.577 17.284C14.5274 19.1226 13.0208 20.5982 11.1699 20.5982V22.3982C13.9987 22.3982 16.3005 20.1433 16.3763 17.3325L14.577 17.284ZM15.4766 16.4082H6.86319V18.2082H15.4766V16.4082Z" fill="#232323"/>
<path d="M16.0727 17.3082V16.4082C15.8298 16.4082 15.5972 16.5064 15.4278 16.6804C15.2584 16.8545 15.1665 17.0896 15.173 17.3325L16.0727 17.3082ZM24.6861 17.3082L25.5858 17.3325C25.5923 17.0896 25.5005 16.8545 25.331 16.6804C25.1616 16.5064 24.929 16.4082 24.6861 16.4082V17.3082ZM20.3794 20.5982C18.5285 20.5982 17.0219 19.1226 16.9724 17.284L15.173 17.3325C15.2488 20.1433 17.5506 22.3982 20.3794 22.3982V20.5982ZM23.7864 17.284C23.7369 19.1226 22.2303 20.5982 20.3794 20.5982V22.3982C23.2082 22.3982 25.51 20.1433 25.5858 17.3325L23.7864 17.284ZM24.6861 16.4082H16.0727V18.2082H24.6861V16.4082Z" fill="#232323"/>
<path d="M7.04547 17.4009H24.4249" stroke="#232323" stroke-linecap="round"/>
<path d="M19.0751 3.07568L22.258 11.6591" stroke="#232323" stroke-linecap="round"/>
<path d="M27.763 12.7629H22.2372L19.9842 6.59688L16.6245 15.0158L4.42474 15.1134C4.72434 8.83136 9.91251 3.83008 16.2688 3.83008C21.8082 3.83008 26.4605 7.62853 27.763 12.7629Z" fill="#232323"/>
<path d="M20.5404 3.79834L16.3478 14.2647" stroke="#232323" stroke-linecap="round"/>
<path d="M18.2451 26.9128C19.2991 26.8601 21.9289 26.233 24.0158 24.146" stroke="#232323" stroke-width="1.8" stroke-linecap="round"/>
<path d="M16 30.75C24.1462 30.75 30.75 24.1462 30.75 16C30.75 7.8538 24.1462 1.25 16 1.25C7.8538 1.25 1.25 7.8538 1.25 16C1.25 24.1462 7.8538 30.75 16 30.75Z" stroke="#232323" stroke-width="2.5"/>
</g>
<defs>
<clipPath id="clip0_609_28">
<rect width="32" height="32" fill="white"/>
</clipPath>
</defs>
</svg>
