<svg width="32" height="32" viewBox="0 0 32 32" fill="none" xmlns="http://www.w3.org/2000/svg">
<rect width="32" height="32" fill="white"/>
<path d="M6.86322 17.3081V16.4081C6.62032 16.4081 6.38773 16.5063 6.21831 16.6803C6.04888 16.8544 5.957 17.0895 5.96355 17.3324L6.86322 17.3081ZM15.4766 17.3081L16.3763 17.3324C16.3829 17.0895 16.291 16.8544 16.1216 16.6803C15.9521 16.5063 15.7195 16.4081 15.4766 16.4081V17.3081ZM11.1699 20.5981C9.31901 20.5981 7.81246 19.1225 7.76289 17.2839L5.96355 17.3324C6.03932 20.1432 8.34114 22.3981 11.1699 22.3981V20.5981ZM14.577 17.2839C14.5274 19.1225 13.0208 20.5981 11.1699 20.5981V22.3981C13.9987 22.3981 16.3005 20.1432 16.3763 17.3324L14.577 17.2839ZM15.4766 16.4081H6.86322V18.2081H15.4766V16.4081Z" fill="#232323"/>
<path d="M16.0727 17.3081V16.4081C15.8298 16.4081 15.5972 16.5063 15.4278 16.6803C15.2584 16.8544 15.1665 17.0895 15.173 17.3324L16.0727 17.3081ZM24.6861 17.3081L25.5858 17.3324C25.5923 17.0895 25.5005 16.8544 25.331 16.6803C25.1616 16.5063 24.929 16.4081 24.6861 16.4081V17.3081ZM20.3794 20.5981C18.5285 20.5981 17.0219 19.1225 16.9724 17.2839L15.173 17.3324C15.2488 20.1432 17.5506 22.3981 20.3794 22.3981V20.5981ZM23.7864 17.2839C23.7369 19.1225 22.2303 20.5981 20.3794 20.5981V22.3981C23.2082 22.3981 25.51 20.1432 25.5858 17.3324L23.7864 17.2839ZM24.6861 16.4081H16.0727V18.2081H24.6861V16.4081Z" fill="#232323"/>
<line x1="7.04547" y1="17.4011" x2="24.4249" y2="17.4011" stroke="#232323" stroke-linecap="round"/>
<path d="M19.0751 3.07578L22.258 11.6592" stroke="#232323" stroke-linecap="round"/>
<path d="M27.763 12.7629H22.2372L19.9842 6.59688L16.6245 15.0158L4.42474 15.1134C4.72434 8.83136 9.91251 3.83008 16.2688 3.83008C21.8082 3.83008 26.4605 7.62853 27.763 12.7629Z" fill="#232323"/>
<path d="M20.5404 3.79834L16.3478 14.2647" stroke="#232323" stroke-linecap="round"/>
<path d="M18.2451 26.913C19.2991 26.8603 21.9289 26.2332 24.0158 24.1462" stroke="#232323" stroke-width="1.8" stroke-linecap="round"/>
<circle cx="16" cy="16" r="14.75" stroke="#232323" stroke-width="2.5"/>
</svg>
