<svg width="860" height="860" viewBox="0 0 860 860" fill="none" xmlns="http://www.w3.org/2000/svg">
<rect width="860" height="860" fill="white"/>
<circle cx="426.5" cy="430.5" r="358.5" stroke="black" stroke-width="40"/>
<path d="M180.039 472V465.75C178.353 465.75 176.739 466.431 175.562 467.638C174.386 468.845 173.747 470.476 173.791 472.161L180.039 472ZM407.961 472L414.209 472.161C414.253 470.476 413.614 468.845 412.437 467.638C411.261 466.431 409.647 465.75 407.961 465.75V472ZM397.957 472V465.75C394.575 465.75 391.806 468.442 391.71 471.823L397.957 472ZM190.042 472L196.29 471.823C196.194 468.442 193.425 465.75 190.042 465.75V472ZM294 576.75C235.44 576.75 187.79 530.033 186.286 471.839L173.791 472.161C175.469 537.114 228.645 589.25 294 589.25V576.75ZM401.713 471.839C400.21 530.033 352.56 576.75 294 576.75V589.25C359.355 589.25 412.531 537.114 414.209 472.161L401.713 471.839ZM407.961 465.75H397.957V478.25H407.961V465.75ZM294 579.25C353.827 579.25 402.522 531.599 404.205 472.177L391.71 471.823C390.218 524.501 347.042 566.75 294 566.75V579.25ZM183.795 472.177C185.478 531.599 234.173 579.25 294 579.25V566.75C240.958 566.75 197.782 524.501 196.29 471.823L183.795 472.177ZM190.042 465.75H180.039V478.25H190.042V465.75Z" fill="black"/>
<path d="M413.039 472V465.75C411.353 465.75 409.739 466.431 408.562 467.638C407.386 468.845 406.747 470.476 406.791 472.161L413.039 472ZM640.961 472L647.209 472.161C647.253 470.476 646.614 468.845 645.437 467.638C644.261 466.431 642.647 465.75 640.961 465.75V472ZM630.957 472V465.75C627.575 465.75 624.806 468.442 624.71 471.823L630.957 472ZM423.042 472L429.29 471.823C429.194 468.442 426.425 465.75 423.042 465.75V472ZM527 576.75C468.44 576.75 420.79 530.033 419.286 471.839L406.791 472.161C408.469 537.114 461.645 589.25 527 589.25V576.75ZM634.713 471.839C633.21 530.033 585.56 576.75 527 576.75V589.25C592.355 589.25 645.531 537.114 647.209 472.161L634.713 471.839ZM640.961 465.75H630.957V478.25H640.961V465.75ZM527 579.25C586.827 579.25 635.522 531.599 637.205 472.177L624.71 471.823C623.218 524.501 580.042 566.75 527 566.75V579.25ZM416.795 472.177C418.478 531.599 467.173 579.25 527 579.25V566.75C473.958 566.75 430.782 524.501 429.29 471.823L416.795 472.177ZM423.042 465.75H413.039V478.25H423.042V465.75Z" fill="black"/>
<line x1="189.5" y1="474.5" x2="629.5" y2="474.5" stroke="black" stroke-width="25" stroke-linecap="round"/>
<path d="M494 111.917L574.527 329.079" stroke="black" stroke-width="12" stroke-linecap="round"/>
<path d="M713.804 357H574L517 201L432 414L123.346 416.469C130.925 257.532 262.186 131 423 131C563.148 131 680.85 227.101 713.804 357Z" fill="black"/>
<path d="M531.073 130.201L425 395" stroke="black" stroke-width="25" stroke-linecap="round"/>
<path d="M473 715C499.667 713.667 566.2 697.8 619 645" stroke="black" stroke-width="25" stroke-linecap="round"/>
</svg>
